<?xml version="1.0" encoding="UTF-8"?>
<svg width="33px" height="32px" viewBox="0 0 33 32" version="1.1" xmlns="http://www.w3.org/2000/svg" xmlns:xlink="http://www.w3.org/1999/xlink">
    <!-- Generator: Sketch 55 (78076) - https://sketchapp.com -->
    <title>logo-linkedin</title>
    <desc>Created with Sketch.</desc>
    <g id="Mockups" stroke="none" stroke-width="1" fill="none" fill-rule="evenodd">
        <g id="Explore-Countries-(iPad)" transform="translate(-1189.000000, -976.000000)" fill="#0A0B09">
            <path d="M1216.10053,993.374293 C1216.10053,988.620276 1213.17095,987 1210.4587,987 C1207.94941,987 1206.3077,988.634759 1205.83889,989.592442 L1205.77602,989.592442 L1205.77602,987.436298 L1201.10053,987.436298 L1201.10053,1003 L1205.96103,1003 L1205.96103,994.561892 C1205.96103,992.311609 1207.37643,991.218149 1208.81877,991.218149 C1210.18388,991.218149 1211.24004,991.992985 1211.24004,994.500339 L1211.24004,1003 L1216.10053,1003 L1216.10053,993.374293 Z M1199.10053,983 C1199.10053,981.26834 1197.75823,980 1196.10053,980 C1194.44284,980 1193.10053,981.26834 1193.10053,983 C1193.10053,984.733591 1194.44284,986 1196.10053,986 C1197.75823,986 1199.10053,984.733591 1199.10053,983 Z M1194.10053,1003 L1199.10053,1003 L1199.10053,988 L1194.10053,988 L1194.10053,1003 Z M1221.10053,978.362667 L1221.10053,1005.63733 C1221.10053,1006.94222 1220.04276,1008 1218.73787,1008 L1191.4632,1008 C1190.15831,1008 1189.10053,1006.94222 1189.10053,1005.63733 L1189.10053,978.362667 C1189.10053,977.057778 1190.15831,976 1191.4632,976 L1218.73787,976 C1220.04276,976 1221.10053,977.057778 1221.10053,978.362667 Z" id="logo-linkedin"></path>
        </g>
    </g>
</svg>